<svg width="28" height="24" viewBox="0 0 28 24" fill="none" xmlns="http://www.w3.org/2000/svg">
<path d="M2 10.5C1.17157 10.5 0.5 11.1716 0.5 12C0.5 12.8284 1.17157 13.5 2 13.5L2 10.5ZM27.1956 13.0607C27.7814 12.4749 27.7814 11.5251 27.1956 10.9393L17.6497 1.3934C17.0639 0.807614 16.1141 0.807614 15.5283 1.3934C14.9426 1.97919 14.9426 2.92893 15.5283 3.51472L24.0136 12L15.5283 20.4853C14.9426 21.0711 14.9426 22.0208 15.5283 22.6066C16.1141 23.1924 17.0639 23.1924 17.6497 22.6066L27.1956 13.0607ZM2 13.5L26.1349 13.5L26.1349 10.5L2 10.5L2 13.5Z" fill="white"/>
</svg>
