<svg width="24" height="25" viewBox="0 0 24 25" fill="none" xmlns="http://www.w3.org/2000/svg">
<g clip-path="url(#clip0_54_189)">
<path d="M23.7168 7.79458C23.2391 6.55069 22.7589 5.30743 22.2825 4.06354C22.1218 3.64377 21.8543 3.32349 21.4353 3.12067C19.3903 2.13094 17.35 1.13287 15.303 0.147639C15.1245 0.0616319 14.9097 0.0090006 14.7121 0.00771691C12.8878 -0.00255261 11.0629 -0.00126892 9.23799 0.00643322C9.06802 0.00707507 8.88157 0.0443021 8.73004 0.118114C6.69232 1.10142 4.65988 2.09371 2.62611 3.08344C2.25388 3.26444 1.96664 3.52695 1.81511 3.91078C1.5338 4.62323 1.25644 5.33696 0.978415 6.05069C0.651642 6.88958 0.329481 7.7304 0.000732422 8.56865L0.718183 9.04682C1.43959 9.52564 2.14715 9.98648 2.88239 10.4743L3.65189 10.9146C3.95165 10.5333 4.24548 10.1482 4.54722 9.76826C4.57818 9.7291 4.64802 9.71883 4.70138 9.69444C4.74486 10.197 4.79428 10.6688 4.82524 11.1412C4.86609 11.774 4.90035 12.4075 4.92209 13.041C4.9458 13.7432 4.95964 14.446 4.96293 15.1482C4.96491 15.5622 4.93526 15.9762 4.92472 16.3902C4.90627 17.1071 4.89442 17.8241 4.87399 18.541C4.86543 18.8337 4.8483 19.127 4.82392 19.419C4.76199 20.1649 4.69809 20.91 4.62628 21.6552C4.59202 22.0057 4.55974 22.3587 4.48595 22.7021C4.37 23.2438 4.6276 23.8125 5.1171 23.9222C5.93271 24.1045 6.75162 24.2842 7.57843 24.3991C8.28995 24.498 9.01531 24.5044 9.73408 24.5544C9.79205 24.5583 9.84805 24.5859 9.90471 24.6019H10.2993C10.3804 24.5891 10.4614 24.5756 10.5424 24.5628C10.6419 24.5756 10.7421 24.5891 10.8415 24.6019H13.2087C13.2403 24.5974 13.2726 24.5936 13.3042 24.5891C13.3721 24.5801 13.4399 24.5711 13.5078 24.5621C13.5888 24.5756 13.6698 24.5885 13.7509 24.6013H14.0467C14.079 24.5859 14.1099 24.5589 14.1435 24.5557C14.9157 24.489 15.6878 24.4209 16.4606 24.3625C17.2755 24.3003 18.0707 24.1392 18.8567 23.9267C19.2078 23.8317 19.5168 23.532 19.5175 23.2419C19.5182 22.9177 19.4997 22.593 19.4681 22.2701C19.3936 21.5044 19.2994 20.74 19.227 19.9742C19.1802 19.4787 19.1518 18.9813 19.1275 18.4839C19.1024 17.9595 19.0761 17.4345 19.0794 16.9101C19.0873 15.5526 19.1024 14.1951 19.1301 12.8382C19.1453 12.1084 19.1868 11.3793 19.2263 10.6502C19.2441 10.326 19.2862 10.0025 19.3231 9.62063C19.3943 9.69894 19.4286 9.73167 19.4575 9.76826C19.7553 10.1437 20.0525 10.5192 20.3502 10.8947V10.8928L21.1066 10.4473L23.2853 9.025L23.9994 8.54875C23.9052 8.29779 23.8117 8.04619 23.7155 7.79587L23.7168 7.79458ZM9.46792 0.865864C9.48175 0.853027 9.49559 0.84019 9.50942 0.827353H14.4901C14.5039 0.84019 14.5171 0.853669 14.5309 0.866506C14.6765 2.28819 13.463 3.51155 11.8924 3.45828C10.4891 3.41078 9.39545 2.319 9.46792 0.865864ZM22.8221 8.3639C22.1211 8.82153 21.4294 9.29329 20.7271 9.74964C20.6777 9.78173 20.5354 9.75349 20.4919 9.70536C20.2732 9.46338 20.0722 9.20728 19.868 8.95375C19.7889 8.85555 19.7336 8.7336 19.6387 8.6553C19.4286 8.48136 19.449 8.25286 19.478 8.03848C19.5425 7.56095 19.6381 7.08727 19.7178 6.61166C19.7507 6.41526 19.5821 6.215 19.3442 6.16045C19.167 6.12001 18.9232 6.24388 18.8916 6.42103C18.8112 6.86712 18.746 7.31577 18.6834 7.76442C18.6143 8.2612 18.553 8.75928 18.4924 9.25735C18.4673 9.46081 18.4482 9.66492 18.4364 9.86903C18.4008 10.4775 18.3863 11.0879 18.3349 11.6951C18.1742 13.584 18.2519 15.4762 18.244 17.3671C18.2414 18.0481 18.296 18.7297 18.3395 19.4101C18.3771 19.9916 18.4278 20.5724 18.4871 21.152C18.5418 21.6815 18.611 22.2104 18.6834 22.738C18.7223 23.0191 18.6841 23.1129 18.3975 23.1719C17.7505 23.3054 17.1029 23.4434 16.4494 23.5384C15.8914 23.6193 15.3254 23.6674 14.7615 23.6847C13.2495 23.731 11.7369 23.7791 10.2249 23.7746C9.45144 23.772 8.67404 23.6867 7.90586 23.5846C7.10013 23.4774 6.30494 23.3009 5.50316 23.1655C5.32726 23.1353 5.30156 23.041 5.31803 22.9017C5.40039 22.2091 5.48669 21.5166 5.56246 20.8234C5.59144 20.5564 5.60001 20.2862 5.61318 20.0179C5.64744 19.3369 5.67907 18.6565 5.71267 17.9755C5.72782 17.6751 5.74824 17.3748 5.76076 17.0737C5.77986 16.6129 5.80885 16.152 5.80688 15.6912C5.80161 14.7496 5.78645 13.8087 5.75944 12.8671C5.74231 12.2657 5.70344 11.6643 5.66259 11.0635C5.62109 10.4582 5.58288 9.8517 5.51173 9.249C5.41356 8.41782 5.28575 7.58983 5.17046 6.76057C5.15531 6.65274 5.1507 6.54106 5.11907 6.43772C5.06044 6.24645 4.84632 6.11616 4.64934 6.15659C4.44379 6.19831 4.31795 6.3331 4.33311 6.5417C4.35682 6.86968 4.39767 7.19767 4.44181 7.52372C4.47936 7.801 4.53602 8.07635 4.57489 8.35363C4.58148 8.39856 4.5459 8.45825 4.51362 8.49869C4.19212 8.90176 3.86008 9.2965 3.5478 9.706C3.45359 9.82987 3.38309 9.82987 3.27044 9.75478C2.57341 9.28944 1.8777 8.82218 1.17474 8.36518C1.05088 8.28495 1.0331 8.22398 1.0858 8.08983C1.51601 6.9942 1.93304 5.89344 2.36127 4.79717C2.49962 4.44287 2.56353 4.04043 2.96936 3.84338C3.56954 3.55199 4.16708 3.25481 4.76726 2.96277C5.48076 2.61489 6.19624 2.26958 6.91039 1.92298C6.94399 1.90694 6.97825 1.89153 7.01646 1.87356L7.83998 1.46471C8.08506 1.34596 8.33278 1.2253 8.6075 1.09179C8.71884 2.99936 10.2051 4.32798 12.1005 4.28112C13.7706 4.2394 15.3248 3.01733 15.3933 1.09564C15.6693 1.22851 15.9362 1.35623 16.1984 1.48268L17.0081 1.8787C18.2585 2.48716 19.4681 3.10526 20.706 3.66495C21.2199 3.8973 21.4722 4.25096 21.6501 4.74646C22.0506 5.86006 22.4947 6.9589 22.9295 8.06031C22.9895 8.21114 22.9552 8.27982 22.8221 8.36647V8.3639Z" fill="white"/>
<path d="M10.5449 24.6H10.8407C10.7412 24.5872 10.6411 24.5737 10.5416 24.5609C10.5429 24.5737 10.5443 24.5872 10.5449 24.6Z" fill="#5E5E5E"/>
<path d="M13.3034 24.5878L13.2079 24.6006C13.3067 24.6006 13.4049 24.6006 13.5037 24.6006C13.5044 24.5872 13.5057 24.5743 13.507 24.5615C13.4391 24.5705 13.3713 24.5795 13.3034 24.5884V24.5878Z" fill="#5E5E5E"/>
<path d="M10.298 24.6H10.5444C10.5437 24.5865 10.5424 24.5737 10.5411 24.5609C10.46 24.5737 10.379 24.5872 10.298 24.6Z" fill="#898989"/>
<path d="M13.5071 24.5609C13.5058 24.5737 13.5044 24.5872 13.5038 24.6H13.7502C13.6691 24.5872 13.5881 24.5737 13.5071 24.5609Z" fill="#898989"/>
<path d="M9.41252 9.0256C9.07652 9.02239 8.74053 9.02496 8.40453 9.02496C8.40453 9.02496 8.40453 9.0256 8.40453 9.02624C8.06854 9.02624 7.73254 9.02175 7.39654 9.02945C7.31419 9.03138 7.21142 9.05063 7.15476 9.10134C7.02958 9.21302 6.89387 9.317 6.9782 9.53908C7.05989 9.75474 7.19758 9.84074 7.40906 9.84203C8.07249 9.84652 8.73657 9.84588 9.4 9.84395C9.71228 9.84331 9.90663 9.67643 9.904 9.42034C9.90136 9.16424 9.73666 9.02881 9.41252 9.0256Z" fill="#F94545"/>
<path d="M7.42485 8.20215C8.0975 8.20921 8.77015 8.20792 9.4428 8.20279C9.72412 8.20086 9.90265 8.03077 9.90397 7.78816C9.90463 7.54233 9.73334 7.38893 9.44017 7.38443C9.10417 7.37994 8.76752 7.38315 8.43086 7.38315C8.09421 7.38315 7.75821 7.37802 7.42221 7.38508C7.12641 7.39085 6.95182 7.54104 6.94523 7.77724C6.93864 8.01408 7.13365 8.19765 7.42485 8.20086V8.20215Z" fill="#FFDE68"/>
</g>
<defs>
<clipPath id="clip0_54_189">
<rect width="24" height="24.6" fill="white"/>
</clipPath>
</defs>
</svg>
